Coordinates
version=1
nRows=7
nColumns=40
inDegrees=yes

Units are S.I. units (second, meters, Newtons, ...)
If the header above contains a line with 'inDegrees', this indicates whether rotational values are in degrees (yes) or radians (no).

endheader
time	pelvis_tilt	pelvis_list	pelvis_rotation	pelvis_tx	pelvis_ty	pelvis_tz	hip_flexion_r	hip_adduction_r	hip_rotation_r	knee_angle_r	knee_angle_r_beta	ankle_angle_r	subtalar_angle_r	mtp_angle_r	hip_flexion_l	hip_adduction_l	hip_rotation_l	knee_angle_l	knee_angle_l_beta	ankle_angle_l	subtalar_angle_l	mtp_angle_l	lumbar_extension	lumbar_bending	lumbar_rotation	arm_flex_r	arm_add_r	arm_rot_r	elbow_flex_r	pro_sup_r	wrist_flex_r	wrist_dev_r	arm_flex_l	arm_add_l	arm_rot_l	elbow_flex_l	pro_sup_l	wrist_flex_l	wrist_dev_l
      4.39000000	    -30.37771026	     -1.44141064	     -2.99264097	     -0.46020279	      0.67491077	     -0.91484657	     86.98650014	     -9.78481558	      3.08835345	     94.83498938	      1.65518281	     36.82686295	      0.00000000	      0.00000000	     89.94653957	    -20.93811118	      7.80517326	     93.58181616	      1.63331081	     33.72639862	      0.00000000	      0.00000000	    -20.87345892	      0.92460045	      4.71584466	     14.20167501	    -55.06244542	     78.89560220	     93.71362434	     86.19684028	      0.00000000	      0.00000000	    -13.83801617	    -49.87144801	     42.01649324	     98.66591798	     87.58087145	      0.00000000	      0.00000000
      4.39500000	    -30.35051279	     -1.37096039	     -2.95645279	     -0.46017756	      0.67497816	     -0.91502278	     86.98488393	     -9.87076427	      3.14119748	     94.84376292	      1.65533594	     36.77329836	      0.00000000	      0.00000000	     89.86221797	    -20.85700779	      7.73573811	     93.56807833	      1.63307104	     33.77951909	      0.00000000	      0.00000000	    -20.96015963	      0.86289193	      4.94378198	     13.63917683	    -55.16771201	     78.39266380	     93.79594742	     85.56166287	      0.00000000	      0.00000000	    -13.19747058	    -49.98406878	     42.70250897	     98.65748738	     87.72465609	      0.00000000	      0.00000000
      4.40000000	    -30.41576027	     -1.39253193	     -2.95045358	     -0.46019756	      0.67496717	     -0.91502990	     87.03201603	     -9.89778548	      3.07459908	     94.81253535	      1.65479091	     36.79986602	      0.00000000	      0.00000000	     89.92549972	    -20.83213603	      7.80344770	     93.54891577	      1.63273659	     33.77148201	      0.00000000	      0.00000000	    -20.94916841	      0.87888815	      5.19787923	     13.11276086	    -55.24620265	     77.85848260	     93.78726053	     86.14065882	      0.00000000	      0.00000000	    -12.71082269	    -49.99678374	     43.18650419	     98.55881010	     87.59986501	      0.00000000	      0.00000000
      4.40500000	    -30.41912974	     -1.30029555	     -2.94136427	     -0.46018835	      0.67497970	     -0.91509283	     87.07322651	     -9.93495521	      3.17793074	     94.83559354	      1.65519336	     36.78842134	      0.00000000	      0.00000000	     89.87827831	    -20.79611026	      7.68295984	     93.54902555	      1.63273851	     33.81945169	      0.00000000	      0.00000000	    -21.02843875	      0.79351924	      4.78833783	     14.12330376	    -55.10241298	     78.86844389	     93.75771437	     86.44089476	      0.00000000	      0.00000000	    -13.82682108	    -49.82470324	     41.94396005	     98.70074941	     87.51280130	      0.00000000	      0.00000000
      4.41000000	    -30.41504573	     -1.26932710	     -2.91326330	     -0.46015015	      0.67501962	     -0.91516750	     87.07823804	    -10.00171615	      3.16810668	     94.84076318	      1.65528358	     36.75230196	      0.00000000	      0.00000000	     89.84854918	    -20.73857331	      7.66522384	     93.52671782	      1.63234916	     33.80091792	      0.00000000	      0.00000000	    -21.09628122	      0.75625522	      5.09790245	     13.20232836	    -55.24227334	     77.91751550	     93.88850629	     85.73303778	      0.00000000	      0.00000000	    -13.20921254	    -49.94046354	     42.56305413	     98.68748629	     87.73202307	      0.00000000	      0.00000000
      4.41500000	    -30.49013894	     -1.22888602	     -2.89043962	     -0.46019276	      0.67506912	     -0.91522597	     87.15993754	    -10.05545871	      3.19075086	     94.82094565	      1.65493770	     36.72896105	      0.00000000	      0.00000000	     89.89664963	    -20.68324596	      7.63456945	     93.48961535	      1.63170160	     33.75797972	      0.00000000	      0.00000000	    -21.03109548	      0.71715589	      5.53771689	     12.31462579	    -55.37371012	     77.14204070	     93.91724544	     85.48457333	      0.00000000	      0.00000000	    -11.92685684	    -50.13055602	     44.04377101	     98.51211089	     87.67461963	      0.00000000	      0.00000000
      4.42000000	    -30.48663477	     -1.11697933	     -2.91885919	     -0.46017752	      0.67518118	     -0.91517861	     87.18767611	    -10.05727562	      3.29359444	     94.80829760	      1.65471695	     36.73064227	      0.00000000	      0.00000000	     89.81874340	    -20.69684622	      7.51100595	     93.46758239	      1.63131706	     33.83544848	      0.00000000	      0.00000000	    -21.13127312	      0.59481410	      4.86961257	     13.98507434	    -55.13665411	     78.76738239	     93.82799981	     86.45716431	      0.00000000	      0.00000000	    -13.85780598	    -49.78860418	     41.87824296	     98.68233113	     87.54314945	      0.00000000	      0.00000000
